# File created by Blade
# Date/Time:  Tue Jan 27 19:38:14 2015
# Frame Rate: 120.000 fps
#------------------------------------------------------
:FULLY-SPECIFIED
:DEGREES
4040
root 3.643563 32.342127 1.900546 0.041664 -29.258731 -1.714134
Spine 4.903474 -13.712702 -3.000015
Head 14.529607 28.519296 11.942431
LeftShoulder -14.977988 3.000710 31.512031
LeftArm -7.190092 30.678060 -106.054020
LeftForeArm 2.929465 0.000000 18.473815
LeftHand 10.388619 -0.000000 -3.214711
LeftHandThumb1 -26.253704 0.000000 33.147579
RightShoulder -29.845642 -21.681328 -21.624824
RightArm -18.944498 35.110503 90.154432
RightForeArm 16.724139 -0.000000 23.976532
RightHand 27.024976 -0.000000 -29.403096
RightHandThumb1 -24.326973 -0.000000 -32.862282
LeftUpLeg 9.942170 14.011748 -0.742711
LeftLeg -0.740625 -0.000000 0.000000
LeftFoot -22.001777 23.364757 -25.060290
LeftToeBase 15.198039 -0.000000 -0.000000
RightUpLeg -1.552151 11.262745 6.077840
RightLeg 8.656056 -0.000000 -0.000000
RightFoot -7.570315 -4.160136 9.984199
RightToeBase 9.564574 -0.000000 -0.000000
4041
root 3.646662 32.342760 1.894940 0.057386 -29.406076 -1.740442
Spine 4.913522 -13.677310 -3.031905
Head 14.516454 28.446353 11.961378
LeftShoulder -14.955150 2.984521 31.519280
LeftArm -7.183063 30.603261 -105.981207
LeftForeArm 2.892071 -0.000000 18.545538
LeftHand 10.453634 -0.000000 -3.550839
LeftHandThumb1 -26.253704 0.000000 33.147579
RightShoulder -29.885063 -21.578200 -21.570483
RightArm -19.399317 36.096918 89.358559
RightForeArm 16.758220 -0.000000 25.725309
RightHand 27.128159 -0.000000 -29.622906
RightHandThumb1 -24.326973 -0.000000 -32.862282
LeftUpLeg 9.941368 14.163055 -0.721810
LeftLeg -0.726846 -0.000000 0.000000
LeftFoot -21.901419 23.412233 -24.881480
LeftToeBase 14.911690 -0.000000 -0.000000
RightUpLeg -1.582867 11.291428 6.085428
RightLeg 8.664284 -0.000000 -0.000000
RightFoot -7.505204 -4.043636 10.002196
RightToeBase 9.484468 -0.000000 -0.000000
4042
root 3.649163 32.343413 1.890707 0.059543 -29.557615 -1.764525
Spine 4.926865 -13.636656 -3.065423
Head 14.502692 28.385927 11.969066
LeftShoulder -14.917281 2.953439 31.525148
LeftArm -7.199576 30.560788 -105.921762
LeftForeArm 2.875751 -0.000000 18.603541
LeftHand 10.380209 -0.000000 -3.224829
LeftHandThumb1 -26.253704 0.000000 33.147579
RightShoulder -29.901429 -21.434908 -21.520259
RightArm -19.940710 37.089322 88.506039
RightForeArm 16.776392 0.000000 27.611473
RightHand 27.145648 0.000000 -29.908348
RightHandThumb1 -24.326973 -0.000000 -32.862282
LeftUpLeg 9.964697 14.310653 -0.694583
LeftLeg -0.729093 -0.000000 0.000000
LeftFoot -22.032094 23.369226 -25.062904
LeftToeBase 15.203485 -0.000000 -0.000000
RightUpLeg -1.590612 11.364794 6.094182
RightLeg 8.661645 -0.000000 -0.000000
RightFoot -7.450489 -3.935602 10.045030
RightToeBase 9.594340 -0.000000 -0.000000
4043
root 3.653898 32.343424 1.886155 0.088012 -29.682793 -1.796007
Spine 4.909287 -13.638393 -3.072102
Head 14.487913 28.334307 11.953526
LeftShoulder -14.881509 2.939930 31.507695
LeftArm -7.195702 30.479642 -105.848079
LeftForeArm 2.892625 -0.000000 18.663971
LeftHand 10.195154 -0.000000 -3.143605
LeftHandThumb1 -26.253704 0.000000 33.147579
RightShoulder -29.918845 -21.328442 -21.481553
RightArm -20.381877 37.995239 87.717814
RightForeArm 16.941494 -0.000000 29.510688
RightHand 27.094692 -0.000000 -30.351702
RightHandThumb1 -24.326973 -0.000000 -32.862282
LeftUpLeg 9.962340 14.283406 -0.703787
LeftLeg -0.746724 -0.000000 0.000000
LeftFoot -21.999475 23.540767 -24.959748
LeftToeBase 14.932546 -0.000000 -0.000000
RightUpLeg -1.618317 11.383799 6.099251
RightLeg 8.647395 -0.000000 -0.000000
RightFoot -7.400237 -3.809779 10.065223
RightToeBase 9.665347 -0.000000 -0.000000
4044
root 3.655830 32.343775 1.882357 0.076617 -29.848822 -1.814781
Spine 4.925872 -13.594341 -3.104449
Head 14.474931 28.273824 11.918184
LeftShoulder -14.861422 2.919868 31.497315
LeftArm -7.255893 30.654737 -105.792536
LeftForeArm 2.665030 -0.000000 18.822078
LeftHand 10.103607 -0.000000 -2.898176
LeftHandThumb1 -26.253704 0.000000 33.147579
RightShoulder -29.867265 -21.170086 -21.471109
RightArm -20.949017 38.908240 86.874663
RightForeArm 17.268502 -0.000000 31.506167
RightHand 27.108403 -0.000000 -30.875390
RightHandThumb1 -24.326973 -0.000000 -32.862282
LeftUpLeg 9.995117 14.452355 -0.678372
LeftLeg -0.735287 -0.000000 0.000000
LeftFoot -22.024338 23.531813 -24.976238
LeftToeBase 14.881957 -0.000000 -0.000000
RightUpLeg -1.619072 11.434885 6.107668
RightLeg 8.651840 -0.000000 -0.000000
RightFoot -7.338617 -3.692383 10.062002
RightToeBase 9.643095 -0.000000 -0.000000
4045
root 3.658800 32.344604 1.878522 0.069092 -30.006836 -1.833559
Spine 4.934132 -13.559440 -3.146833
Head 14.471906 28.196223 11.935337
LeftShoulder -14.812619 2.894220 31.517582
LeftArm -7.210369 30.465430 -105.743319
LeftForeArm 2.767454 0.000000 18.738666
LeftHand 10.284850 -0.000000 -3.018103
LeftHandThumb1 -26.253704 0.000000 33.147579
RightShoulder -29.884879 -21.053755 -21.431856
RightArm -21.430583 39.779139 86.092549
RightForeArm 17.585414 -0.000000 33.598970
RightHand 27.158345 -0.000000 -31.171577
RightHandThumb1 -24.326973 -0.000000 -32.862282
LeftUpLeg 10.022555 14.612814 -0.651539
LeftLeg -0.727315 -0.000000 0.000000
LeftFoot -22.136467 23.480429 -25.151876
LeftToeBase 15.145748 -0.000000 -0.000000
RightUpLeg -1.631857 11.442333 6.113689
RightLeg 8.669119 -0.000000 -0.000000
RightFoot -7.264296 -3.550851 10.023820
RightToeBase 9.614782 -0.000000 -0.000000
4046
root 3.665564 32.345394 1.871207 0.089562 -30.141043 -1.849935
Spine 4.917803 -13.566597 -3.173115
Head 14.445469 28.130348 11.917186
LeftShoulder -14.791694 2.912850 31.510834
LeftArm -7.135027 30.401956 -105.670004
LeftForeArm 2.775515 -0.000000 18.715616
LeftHand 10.229221 0.000000 -3.011019
LeftHandThumb1 -26.253704 0.000000 33.147579
RightShoulder -29.975307 -20.986374 -21.401386
RightArm -21.772978 40.698582 85.404608
RightForeArm 17.730320 -0.000000 35.679974
RightHand 27.402648 -0.000000 -31.506911
RightHandThumb1 -24.326973 -0.000000 -32.862282
LeftUpLeg 10.001223 14.636982 -0.666241
LeftLeg -0.710823 -0.000000 0.000000
LeftFoot -22.098835 23.611639 -25.045116
LeftToeBase 14.871447 -0.000000 -0.000000
RightUpLeg -1.666994 11.501560 6.105217
RightLeg 8.658888 -0.000000 -0.000000
RightFoot -7.212586 -3.455757 10.057239
RightToeBase 9.669271 -0.000000 -0.000000
